<svg xmlns="http://www.w3.org/2000/svg" width="405.622" height="313.633" viewBox="0 0 405.622 313.633">
  <g id="_2988065" data-name="2988065" transform="translate(0.17 -127.99)">
    <g id="OBJECTS" transform="translate(0.33 128.49)">
      <g id="Group_416" data-name="Group 416">
        <g id="Group_390" data-name="Group 390" transform="translate(315.862 16.2)">
          <circle id="Ellipse_21" data-name="Ellipse 21" cx="14.67" cy="14.67" r="14.67" transform="translate(14.63 14.62)" fill="#ffd373" stroke="#2647a3" stroke-linecap="round" stroke-linejoin="round" stroke-width="1"/>
          <path id="Path_293" data-name="Path 293" d="M414.21,145.57a2.006,2.006,0,0,1-2,2h0a2.006,2.006,0,0,1-2-2v-5.88a2.006,2.006,0,0,1,2-2h0a2.006,2.006,0,0,1,2,2Z" transform="translate(-382.91 -137.69)" fill="#ffd373" stroke="#2647a3" stroke-linecap="round" stroke-linejoin="round" stroke-width="1"/>
          <path id="Path_294" data-name="Path 294" d="M398.48,150.42a2,2,0,0,1,0,2.83h0a2,2,0,0,1-2.83,0l-4.15-4.15a2,2,0,0,1,0-2.83h0a2,2,0,0,1,2.83,0Z" transform="translate(-382.91 -137.69)" fill="#ffd373" stroke="#2647a3" stroke-linecap="round" stroke-linejoin="round" stroke-width="1"/>
          <path id="Path_295" data-name="Path 295" d="M390.79,164.98a2,2,0,0,1,2,2h0a2,2,0,0,1-2,2h-5.88a2,2,0,0,1-2-2h0a2,2,0,0,1,2-2Z" transform="translate(-382.91 -137.69)" fill="#ffd373" stroke="#2647a3" stroke-linecap="round" stroke-linejoin="round" stroke-width="1"/>
          <path id="Path_296" data-name="Path 296" d="M395.65,180.71a2,2,0,0,1,2.83,0h0a2,2,0,0,1,0,2.83l-4.15,4.15a2,2,0,0,1-2.83,0h0a2,2,0,0,1,0-2.83Z" transform="translate(-382.91 -137.69)" fill="#ffd373" stroke="#2647a3" stroke-linecap="round" stroke-linejoin="round" stroke-width="1"/>
          <path id="Path_297" data-name="Path 297" d="M410.21,188.4a2.006,2.006,0,0,1,2-2h0a2,2,0,0,1,2,2v5.88a2,2,0,0,1-2,2h0a1.993,1.993,0,0,1-2-2Z" transform="translate(-382.91 -137.69)" fill="#ffd373" stroke="#2647a3" stroke-linecap="round" stroke-linejoin="round" stroke-width="1"/>
          <path id="Path_298" data-name="Path 298" d="M425.93,183.54a2,2,0,0,1,0-2.83h0a2,2,0,0,1,2.83,0l4.15,4.15a2,2,0,0,1,0,2.83h0a2,2,0,0,1-2.83,0Z" transform="translate(-382.91 -137.69)" fill="#ffd373" stroke="#2647a3" stroke-linecap="round" stroke-linejoin="round" stroke-width="1"/>
          <path id="Path_299" data-name="Path 299" d="M433.62,168.98a2,2,0,0,1-2-2h0a2.006,2.006,0,0,1,2-2h5.88a2.006,2.006,0,0,1,2,2h0a2,2,0,0,1-2,2Z" transform="translate(-382.91 -137.69)" fill="#ffd373" stroke="#2647a3" stroke-linecap="round" stroke-linejoin="round" stroke-width="1"/>
          <path id="Path_300" data-name="Path 300" d="M428.76,153.25a2,2,0,0,1-2.83,0h0a2,2,0,0,1,0-2.83l4.15-4.15a2,2,0,0,1,2.83,0h0a2,2,0,0,1,0,2.83Z" transform="translate(-382.91 -137.69)" fill="#ffd373" stroke="#2647a3" stroke-linecap="round" stroke-linejoin="round" stroke-width="1"/>
        </g>
        <path id="Path_301" data-name="Path 301" d="M105.01,199.96a17.408,17.408,0,0,0-3.33.33,23.84,23.84,0,0,0-45.23,8.39,13.475,13.475,0,0,0-2.22-.2,13.04,13.04,0,1,0,0,26.08h50.78a17.3,17.3,0,0,0,0-34.6Z" transform="translate(-28.33 -103.047)" fill="#f2fcff" stroke="#2647a3" stroke-linecap="round" stroke-linejoin="round" stroke-width="1"/>
        <path id="Path_302" data-name="Path 302" d="M416.14,172.38a25.029,25.029,0,0,0-4.92.49,35.169,35.169,0,0,0-66.72,12.37,19.491,19.491,0,0,0-3.27-.3,19.225,19.225,0,1,0,0,38.45h74.9a25.5,25.5,0,0,0,.01-51.01Z" transform="translate(-67.048 -121.49)" fill="#f2fcff" stroke="#2647a3" stroke-linecap="round" stroke-linejoin="round" stroke-width="1"/>
        <g id="Group_395" data-name="Group 395" transform="translate(26.98 149.273)">
          <g id="Group_391" data-name="Group 391" transform="translate(273.225)">
            <path id="Path_303" data-name="Path 303" d="M370.21,261.49c-11.18,29.13,12.95,48.73,12.95,48.73l37.55-97.78S381.47,232.16,370.21,261.49Z" transform="translate(-367.254 -212.44)" fill="#81d678" stroke="#2647a3" stroke-linecap="round" stroke-linejoin="round" stroke-width="1"/>
            <path id="Path_304" data-name="Path 304" d="M425.4,282.68c-11.19,29.12-42.24,27.54-42.24,27.54l37.55-97.78S436.66,253.35,425.4,282.68Z" transform="translate(-367.254 -212.44)" fill="#64b05b" stroke="#2647a3" stroke-linecap="round" stroke-linejoin="round" stroke-width="1"/>
          </g>
          <g id="Group_392" data-name="Group 392" transform="translate(285.707 80.283)">
            <path id="Path_305" data-name="Path 305" d="M392.94,303.13c-18.96,13.62-11.93,35.81-11.93,35.81l63.67-45.73C444.68,293.2,412.04,289.41,392.94,303.13Z" transform="translate(-379.735 -292.723)" fill="#81d678" stroke="#2647a3" stroke-linecap="round" stroke-linejoin="round" stroke-width="1"/>
            <path id="Path_306" data-name="Path 306" d="M418.75,339.07c-18.97,13.62-37.74-.13-37.74-.13l63.67-45.73C444.69,293.2,437.85,325.35,418.75,339.07Z" transform="translate(-379.735 -292.723)" fill="#64b05b" stroke="#2647a3" stroke-linecap="round" stroke-linejoin="round" stroke-width="1"/>
          </g>
          <g id="Group_393" data-name="Group 393" transform="translate(15.267)">
            <path id="Path_307" data-name="Path 307" d="M129.79,261.49c11.18,29.13-12.95,48.73-12.95,48.73L79.29,212.44S118.53,232.16,129.79,261.49Z" transform="translate(-70.577 -212.44)" fill="#81d678" stroke="#2647a3" stroke-linecap="round" stroke-linejoin="round" stroke-width="1"/>
            <path id="Path_308" data-name="Path 308" d="M74.6,282.68c11.19,29.12,42.24,27.54,42.24,27.54L79.29,212.44S63.34,253.35,74.6,282.68Z" transform="translate(-70.577 -212.44)" fill="#64b05b" stroke="#2647a3" stroke-linecap="round" stroke-linejoin="round" stroke-width="1"/>
          </g>
          <g id="Group_394" data-name="Group 394" transform="translate(0 80.28)">
            <path id="Path_309" data-name="Path 309" d="M107.06,303.13c18.96,13.62,11.93,35.81,11.93,35.81L55.32,293.2S87.96,289.41,107.06,303.13Z" transform="translate(-55.31 -292.72)" fill="#81d678" stroke="#2647a3" stroke-linecap="round" stroke-linejoin="round" stroke-width="1"/>
            <path id="Path_310" data-name="Path 310" d="M81.25,339.07c18.97,13.62,37.74-.13,37.74-.13L55.31,293.2S62.15,325.35,81.25,339.07Z" transform="translate(-55.31 -292.72)" fill="#64b05b" stroke="#2647a3" stroke-linecap="round" stroke-linejoin="round" stroke-width="1"/>
          </g>
        </g>
        <line id="Line_1" data-name="Line 1" x2="404.622" transform="translate(0 281.923)" fill="none" stroke="#2647a3" stroke-linecap="round" stroke-linejoin="round" stroke-width="1"/>
        <g id="Group_401" data-name="Group 401" transform="translate(31.27 125.013)">
          <path id="Path_311" data-name="Path 311" d="M401.673,368.23l-37.523-8.8c-6.36-2.4-13.376-4.19-16.116-4.19H113.248c-2.749,0-9.765,1.79-16.116,4.19L59.6,368.23v7.29h.063c.135.18.521.28,1.195.28H400.424c.674,0,1.06-.1,1.195-.28h.063v-7.29Z" transform="translate(-59.6 -188.18)" fill="#badbf7" stroke="#2647a3" stroke-linecap="round" stroke-linejoin="round" stroke-width="1" fill-rule="evenodd"/>
          <path id="Path_312" data-name="Path 312" d="M287.25,368.93a3,3,0,0,1-3,3h-68.5a3,3,0,0,1-3-3V352.98a3,3,0,0,1,3-3h68.5a3,3,0,0,1,3,3Z" transform="translate(-78.959 -188.18)" fill="#86b3db" stroke="#2647a3" stroke-linecap="round" stroke-linejoin="round" stroke-width="1" fill-rule="evenodd"/>
          <g id="Group_398" data-name="Group 398" transform="translate(18.803)">
            <g id="Group_396" data-name="Group 396" transform="translate(0)">
              <path id="Path_313" data-name="Path 313" d="M416.5,347.55c0,3.06-2.787,5.56-6.2,5.56H118.948c-3.411,0-6.2-2.5-6.2-5.56V193.74c0-3.06,2.787-5.56,6.2-5.56H410.313c3.411,0,6.2,2.5,6.2,5.56V347.55Z" transform="translate(-112.75 -188.18)" fill="#fff" stroke="#2647a3" stroke-linecap="round" stroke-linejoin="round" stroke-width="1" fill-rule="evenodd"/>
            </g>
            <g id="Group_397" data-name="Group 397" transform="translate(5.65 6.09)">
              <rect id="Rectangle_1423" data-name="Rectangle 1423" width="292.452" height="146.25" fill="#badbf7" stroke="#2647a3" stroke-linecap="round" stroke-linejoin="round" stroke-width="1"/>
            </g>
          </g>
          <g id="Group_399" data-name="Group 399" transform="translate(92.238 156.91)">
            <path id="Path_314" data-name="Path 314" d="M169.02,352.36a3,3,0,0,1-3,3H139.4a3,3,0,0,1-3-3v-4.27a3,3,0,0,1,3-3h26.63a3,3,0,0,1,3,3v4.27Z" transform="translate(-136.4 -345.09)" fill="#86b3db" stroke="#2647a3" stroke-linecap="round" stroke-linejoin="round" stroke-width="1" fill-rule="evenodd"/>
            <path id="Path_315" data-name="Path 315" d="M361.58,352.36a3,3,0,0,1-3,3H331.95a3,3,0,0,1-3-3v-4.27a3,3,0,0,1,3-3h26.63a3,3,0,0,1,3,3Z" transform="translate(-206.4 -345.09)" fill="#86b3db" stroke="#2647a3" stroke-linecap="round" stroke-linejoin="round" stroke-width="1" fill-rule="evenodd"/>
          </g>
          <path id="Path_316" data-name="Path 316" d="M388.6,361.49c9.935,3.74,15.784,7.17,11.813,7.17H60.858c-3.971,0,1.886-3.43,11.813-7.17l24.452-9.21c6.36-2.4,13.376-4.19,16.116-4.19H348.024c2.749,0,9.765,1.79,16.116,4.19Z" transform="translate(-59.6 -188.18)" fill="#fff" stroke="#2647a3" stroke-linecap="round" stroke-linejoin="round" stroke-width="1" fill-rule="evenodd"/>
          <g id="Group_400" data-name="Group 400" transform="translate(88.204 161.19)">
            <path id="Path_317" data-name="Path 317" d="M381.99,357.81c.5.2-.72.37-2.74.37h-9.19a19.247,19.247,0,0,1-4.49-.37l-1.86-.84c-.43-.19.82-.35,2.79-.35h8.92a21.259,21.259,0,0,1,4.45.35Z" transform="translate(-237.161 -349.37)" fill="#2647a3" fill-rule="evenodd"/>
            <path id="Path_318" data-name="Path 318" d="M362.37,357.81c.43.2-.87.37-2.88.37h-9.41a17.346,17.346,0,0,1-4.35-.37l-1.54-.84c-.36-.19.96-.35,2.92-.35h9.13a19.183,19.183,0,0,1,4.32.35Z" transform="translate(-224.153 -349.37)" fill="#2647a3" fill-rule="evenodd"/>
            <path id="Path_319" data-name="Path 319" d="M342.52,357.81c.35.2-1.01.37-3.03.37h-7.43a15.653,15.653,0,0,1-4.22-.37l-1.25-.84c-.29-.19,1.08-.35,3.04-.35h7.21a17.3,17.3,0,0,1,4.19.35Z" transform="translate(-208.031 -349.37)" fill="#2647a3" fill-rule="evenodd"/>
            <path id="Path_320" data-name="Path 320" d="M324.64,357.81c.29.2-1.13.37-3.15.37h-8.28a14.06,14.06,0,0,1-4.09-.37l-.95-.84c-.22-.19,1.2-.35,3.16-.35h8.04a15.685,15.685,0,0,1,4.07.35Z" transform="translate(-199.315 -349.37)" fill="#2647a3" fill-rule="evenodd"/>
            <path id="Path_321" data-name="Path 321" d="M305.92,357.81c.21.2-1.26.37-3.28.37H201.13c-2.02,0-3.5-.17-3.3-.37l.84-.84a13.288,13.288,0,0,1,3.91-.35h98.5a14.012,14.012,0,0,1,3.94.35Z" transform="translate(-168.489 -349.37)" fill="#2647a3" fill-rule="evenodd"/>
            <path id="Path_322" data-name="Path 322" d="M194.62,357.81a13.685,13.685,0,0,1-4.06.37h-8.51c-2.02,0-3.44-.17-3.17-.37l1.14-.84a14.819,14.819,0,0,1,4.04-.35h8.26c1.96,0,3.39.17,3.19.35Z" transform="translate(-136.732 -349.37)" fill="#2647a3" fill-rule="evenodd"/>
            <path id="Path_323" data-name="Path 323" d="M175.67,357.81a15.31,15.31,0,0,1-4.19.37h-8.64c-2.02,0-3.38-.17-3.03-.37l1.45-.84a16.506,16.506,0,0,1,4.17-.35h8.38c1.96,0,3.34.17,3.06.35Z" transform="translate(-127.532 -349.37)" fill="#2647a3" fill-rule="evenodd"/>
            <path id="Path_324" data-name="Path 324" d="M156.6,357.81a17.082,17.082,0,0,1-4.33.37H144c-2.02,0-3.32-.17-2.91-.37l1.75-.84a18.3,18.3,0,0,1,4.3-.35h8.03c1.96,0,3.28.17,2.93.35Z" transform="translate(-111.207 -349.37)" fill="#2647a3" fill-rule="evenodd"/>
            <path id="Path_325" data-name="Path 325" d="M137.88,357.81a18.861,18.861,0,0,1-4.46.37h-9.36c-2.02,0-3.26-.17-2.77-.37l2.07-.84a20.34,20.34,0,0,1,4.43-.35h9.08c1.96,0,3.22.17,2.8.35Z" transform="translate(-97.161 -349.37)" fill="#2647a3" fill-rule="evenodd"/>
            <path id="Path_326" data-name="Path 326" d="M390.61,354.86a21.738,21.738,0,0,1,4.39.33l2.31.79c.55.18-.6.34-2.55.34h-9.89a20.435,20.435,0,0,1-4.42-.34l-2.04-.79c-.47-.18.7-.33,2.6-.33Z" transform="translate(-237.161 -349.37)" fill="#2647a3" fill-rule="evenodd"/>
            <path id="Path_327" data-name="Path 327" d="M377.35,355.98c.47.18-.73.34-2.68.34H365.8a18.692,18.692,0,0,1-4.3-.34l-1.75-.79c-.4-.18.83-.33,2.72-.33h8.61a19.694,19.694,0,0,1,4.26.33Z" transform="translate(-237.161 -349.37)" fill="#2647a3" fill-rule="evenodd"/>
            <path id="Path_328" data-name="Path 328" d="M358.41,355.98c.4.18-.87.34-2.81.34H329.15a15.26,15.26,0,0,1-4.05-.34l-1.18-.79c-.27-.18,1.06-.33,2.95-.33h25.69a17.942,17.942,0,0,1,4.14.33Z" transform="translate(-221.719 -349.37)" fill="#2647a3" fill-rule="evenodd"/>
            <path id="Path_329" data-name="Path 329" d="M322.01,355.98c.27.18-1.11.34-3.06.34h-7.99a13.737,13.737,0,0,1-3.93-.34l-.89-.79c-.2-.18,1.18-.33,3.07-.33h7.76a14.757,14.757,0,0,1,3.91.33Z" transform="translate(-198.122 -349.37)" fill="#2647a3" fill-rule="evenodd"/>
            <path id="Path_330" data-name="Path 330" d="M303.96,355.98c.2.18-1.23.34-3.18.34h-9.03a12.133,12.133,0,0,1-3.79-.34l-.59-.79c-.14-.18,1.3-.33,3.19-.33h8.77a13.224,13.224,0,0,1,3.79.33Z" transform="translate(-189.279 -349.37)" fill="#2647a3" fill-rule="evenodd"/>
            <path id="Path_331" data-name="Path 331" d="M284.86,355.98c.13.18-1.36.34-3.31.34h-6.98a10.926,10.926,0,0,1-3.68-.34l-.33-.79c-.08-.18,1.41-.33,3.3-.33h6.78a11.787,11.787,0,0,1,3.67.33Z" transform="translate(-180.475 -349.37)" fill="#2647a3" fill-rule="evenodd"/>
            <path id="Path_332" data-name="Path 332" d="M267.79,355.98c.06.18-1.48.34-3.42.34h-8.33c-1.95,0-3.55-.15-3.56-.34l-.04-.79c-.01-.18,1.53-.33,3.42-.33h8.09a10.617,10.617,0,0,1,3.56.33Z" transform="translate(-172.038 -349.37)" fill="#2647a3" fill-rule="evenodd"/>
            <path id="Path_333" data-name="Path 333" d="M249.38,355.98c0,.18-1.6.34-3.55.34h-7.98c-1.95,0-3.5-.15-3.44-.34l.24-.79a10.407,10.407,0,0,1,3.54-.33h7.75c1.89,0,3.44.15,3.44.33Z" transform="translate(-163.256 -349.37)" fill="#2647a3" fill-rule="evenodd"/>
            <path id="Path_334" data-name="Path 334" d="M231.32,355.98a11.1,11.1,0,0,1-3.67.34h-9.03c-1.95,0-3.44-.15-3.31-.34l.54-.79a11.7,11.7,0,0,1,3.66-.33h8.77c1.89,0,3.39.15,3.32.33Z" transform="translate(-154.316 -349.37)" fill="#2647a3" fill-rule="evenodd"/>
            <path id="Path_335" data-name="Path 335" d="M212.23,355.98a12.57,12.57,0,0,1-3.8.34h-8.21c-1.94,0-3.38-.15-3.18-.34l.83-.79a13.132,13.132,0,0,1,3.78-.33h7.97c1.9,0,3.33.15,3.2.33Z" transform="translate(-145.39 -349.37)" fill="#2647a3" fill-rule="evenodd"/>
            <path id="Path_336" data-name="Path 336" d="M193.95,355.98a14.052,14.052,0,0,1-3.92.34H181.7c-1.95,0-3.32-.15-3.06-.34l1.12-.79a14.659,14.659,0,0,1,3.9-.33h8.09c1.9,0,3.28.15,3.08.33Z" transform="translate(-136.556 -349.37)" fill="#2647a3" fill-rule="evenodd"/>
            <path id="Path_337" data-name="Path 337" d="M175.54,355.98a15.731,15.731,0,0,1-4.05.34h-7.98c-1.95,0-3.27-.15-2.94-.34l1.4-.79a16.222,16.222,0,0,1,4.02-.33h7.75c1.89,0,3.23.15,2.96.33Z" transform="translate(-127.804 -349.37)" fill="#2647a3" fill-rule="evenodd"/>
            <path id="Path_338" data-name="Path 338" d="M157.48,355.98a17.348,17.348,0,0,1-4.17.34h-9.03c-1.95,0-3.21-.15-2.81-.34l1.7-.79a17.942,17.942,0,0,1,4.14-.33h8.77c1.89,0,3.17.15,2.84.33Z" transform="translate(-111.358 -349.37)" fill="#2647a3" fill-rule="evenodd"/>
            <path id="Path_339" data-name="Path 339" d="M138.38,355.98a19.2,19.2,0,0,1-4.29.34H105.24c-1.95,0-3.09-.15-2.55-.34l2.31-.79a21.813,21.813,0,0,1,4.39-.33h28.02c1.89,0,3.12.15,2.72.33Z" transform="translate(-97.161 -349.37)" fill="#2647a3" fill-rule="evenodd"/>
            <path id="Path_340" data-name="Path 340" d="M386,353.24a21.323,21.323,0,0,1,4.23.31l2.06.7c.52.18-.61.32-2.49.32h-9.55a19.935,19.935,0,0,1-4.25-.32l-1.82-.7c-.44-.17.7-.31,2.53-.31Z" transform="translate(-237.161 -349.37)" fill="#2647a3" fill-rule="evenodd"/>
            <path id="Path_341" data-name="Path 341" d="M373,354.25c.45.18-.73.32-2.61.32H336.82a15.736,15.736,0,0,1-3.96-.32l-1.2-.7c-.29-.17.97-.31,2.8-.31h32.66a19.243,19.243,0,0,1,4.1.31Z" transform="translate(-237.161 -349.37)" fill="#2647a3" fill-rule="evenodd"/>
            <path id="Path_342" data-name="Path 342" d="M329.87,354.25c.29.18-1.02.32-2.9.32h-8.04a14.238,14.238,0,0,1-3.85-.32l-.94-.7c-.23-.17,1.08-.31,2.92-.31h7.82a15.226,15.226,0,0,1,3.83.31Z" transform="translate(-201.938 -349.37)" fill="#2647a3" fill-rule="evenodd"/>
            <path id="Path_343" data-name="Path 343" d="M312.09,354.25c.23.18-1.13.32-3.01.32h-7.71a12.787,12.787,0,0,1-3.73-.32l-.69-.7c-.17-.17,1.2-.31,3.03-.31h7.5a13.83,13.83,0,0,1,3.72.31Z" transform="translate(-193.437 -349.37)" fill="#2647a3" fill-rule="evenodd"/>
            <path id="Path_344" data-name="Path 344" d="M294.65,354.25c.16.18-1.25.32-3.13.32H282.8a11.374,11.374,0,0,1-3.61-.32l-.42-.7c-.1-.17,1.32-.31,3.15-.31h8.48a12.4,12.4,0,0,1,3.61.31Z" transform="translate(-184.897 -349.37)" fill="#2647a3" fill-rule="evenodd"/>
            <path id="Path_345" data-name="Path 345" d="M276.2,354.25c.09.18-1.37.32-3.25.32H266.2a10.178,10.178,0,0,1-3.5-.32l-.18-.7c-.04-.17,1.42-.31,3.25-.31h6.57a11.026,11.026,0,0,1,3.49.31Z" transform="translate(-176.443 -349.37)" fill="#2647a3" fill-rule="evenodd"/>
            <path id="Path_346" data-name="Path 346" d="M259.72,354.25c.04.18-1.48.32-3.36.32h-8.04c-1.88,0-3.41-.14-3.39-.32l.07-.7a9.612,9.612,0,0,1,3.36-.31h7.82a9.9,9.9,0,0,1,3.39.31Z" transform="translate(-168.279 -349.37)" fill="#2647a3" fill-rule="evenodd"/>
            <path id="Path_347" data-name="Path 347" d="M241.94,354.25a9.893,9.893,0,0,1-3.47.32h-7.71c-1.88,0-3.35-.14-3.27-.32l.33-.7a10.8,10.8,0,0,1,3.47-.31h7.5c1.83,0,3.3.14,3.28.31Z" transform="translate(-159.839 -349.37)" fill="#2647a3" fill-rule="evenodd"/>
            <path id="Path_348" data-name="Path 348" d="M224.5,354.25a11.155,11.155,0,0,1-3.59.32h-8.72c-1.88,0-3.3-.14-3.15-.32l.59-.7a12.165,12.165,0,0,1,3.59-.31h8.48c1.83,0,3.25.14,3.16.31Z" transform="translate(-151.195 -349.37)" fill="#2647a3" fill-rule="evenodd"/>
            <path id="Path_349" data-name="Path 349" d="M206.05,354.25a12.554,12.554,0,0,1-3.71.32h-7.93c-1.88,0-3.25-.14-3.04-.32l.85-.7a13.521,13.521,0,0,1,3.7-.31h7.71c1.83,0,3.21.14,3.05.31Z" transform="translate(-142.578 -349.37)" fill="#2647a3" fill-rule="evenodd"/>
            <path id="Path_350" data-name="Path 350" d="M188.4,354.25a13.9,13.9,0,0,1-3.82.32h-8.05c-1.88,0-3.2-.14-2.92-.32l1.1-.7a15.019,15.019,0,0,1,3.81-.31h7.83c1.83,0,3.15.14,2.94.31Z" transform="translate(-134.056 -349.37)" fill="#2647a3" fill-rule="evenodd"/>
            <path id="Path_351" data-name="Path 351" d="M170.62,354.25a15.473,15.473,0,0,1-3.94.32h-7.71c-1.88,0-3.14-.14-2.8-.32l1.36-.7a16.545,16.545,0,0,1,3.92-.31h7.5c1.83,0,3.1.14,2.83.31Z" transform="translate(-125.623 -349.37)" fill="#2647a3" fill-rule="evenodd"/>
            <path id="Path_352" data-name="Path 352" d="M153.17,354.25a17.087,17.087,0,0,1-4.06.32h-8.72c-1.88,0-3.09-.14-2.68-.32l1.62-.7a18.27,18.27,0,0,1,4.04-.31h8.48c1.83,0,3.05.14,2.72.31Z" transform="translate(-110.115 -349.37)" fill="#2647a3" fill-rule="evenodd"/>
            <path id="Path_353" data-name="Path 353" d="M134.73,354.25a18.86,18.86,0,0,1-4.18.32H110.2c-1.88,0-3-.14-2.49-.32l2.06-.7a21.32,21.32,0,0,1,4.23-.31h19.79c1.83,0,3,.14,2.6.31Z" transform="translate(-97.161 -349.37)" fill="#2647a3" fill-rule="evenodd"/>
            <path id="Path_354" data-name="Path 354" d="M381.45,351.65a20.77,20.77,0,0,1,4.05.28l2.18.75c.48.16-.61.3-2.44.3H376a19.962,19.962,0,0,1-4.08-.3l-1.93-.75c-.41-.17.71-.28,2.48-.28Z" transform="translate(-237.161 -349.37)" fill="#2647a3" fill-rule="evenodd"/>
            <path id="Path_355" data-name="Path 355" d="M369.02,352.68c.41.16-.73.3-2.55.3H345.59a17.022,17.022,0,0,1-3.89-.3l-1.45-.75c-.31-.17.89-.28,2.66-.28h20.3a19.044,19.044,0,0,1,3.94.28Z" transform="translate(-237.161 -349.37)" fill="#2647a3" fill-rule="evenodd"/>
            <path id="Path_356" data-name="Path 356" d="M338.8,352.68c.31.16-.93.3-2.75.3h-8.09a15.366,15.366,0,0,1-3.78-.3l-1.17-.75c-.25-.17,1-.28,2.77-.28h7.86a16.218,16.218,0,0,1,3.76.28Z" transform="translate(-206.246 -349.37)" fill="#2647a3" fill-rule="evenodd"/>
            <path id="Path_357" data-name="Path 357" d="M321.3,352.68c.25.16-1.04.3-2.86.3h-7.78a13.926,13.926,0,0,1-3.67-.3l-.9-.75c-.19-.17,1.1-.28,2.87-.28h7.56a14.662,14.662,0,0,1,3.65.28Z" transform="translate(-197.867 -349.37)" fill="#2647a3" fill-rule="evenodd"/>
            <path id="Path_358" data-name="Path 358" d="M304.1,352.68c.19.16-1.15.3-2.97.3h-7.46a12.51,12.51,0,0,1-3.56-.3l-.64-.75c-.13-.17,1.2-.28,2.97-.28h7.25a13.35,13.35,0,0,1,3.55.28Z" transform="translate(-189.668 -349.37)" fill="#2647a3" fill-rule="evenodd"/>
            <path id="Path_359" data-name="Path 359" d="M287.22,352.68c.13.16-1.25.3-3.07.3h-8.43a11.18,11.18,0,0,1-3.45-.3l-.35-.75c-.08-.17,1.31-.28,3.08-.28h8.2a11.905,11.905,0,0,1,3.44.28Z" transform="translate(-181.418 -349.37)" fill="#2647a3" fill-rule="evenodd"/>
            <path id="Path_360" data-name="Path 360" d="M269.37,352.68c.07.16-1.36.3-3.18.3h-6.53a10.016,10.016,0,0,1-3.35-.3l-.1-.75c-.02-.17,1.41-.28,3.18-.28h6.34a10.6,10.6,0,0,1,3.33.28Z" transform="translate(-173.282 -349.37)" fill="#2647a3" fill-rule="evenodd"/>
            <path id="Path_361" data-name="Path 361" d="M253.42,352.68a9.379,9.379,0,0,1-3.29.3h-7.78c-1.82,0-3.28-.14-3.24-.3l.17-.75a9.807,9.807,0,0,1,3.28-.28h7.56a9.593,9.593,0,0,1,3.24.28Z" transform="translate(-165.365 -349.37)" fill="#2647a3" fill-rule="evenodd"/>
            <path id="Path_362" data-name="Path 362" d="M236.22,352.68a10.588,10.588,0,0,1-3.4.3h-7.46c-1.82,0-3.23-.14-3.13-.3l.44-.75a10.891,10.891,0,0,1,3.38-.28h7.25c1.77,0,3.18.12,3.13.28Z" transform="translate(-157.231 -349.37)" fill="#2647a3" fill-rule="evenodd"/>
            <path id="Path_363" data-name="Path 363" d="M219.34,352.68a11.787,11.787,0,0,1-3.5.3h-8.43c-1.82,0-3.18-.14-3.02-.3l.72-.75a12.128,12.128,0,0,1,3.49-.28h8.2c1.77,0,3.13.12,3.03.28Z" transform="translate(-148.88 -349.37)" fill="#2647a3" fill-rule="evenodd"/>
            <path id="Path_364" data-name="Path 364" d="M201.49,352.68a13.255,13.255,0,0,1-3.62.3H190.2c-1.82,0-3.13-.14-2.91-.3l.99-.75a13.494,13.494,0,0,1,3.6-.28h7.45c1.77,0,3.08.12,2.92.28Z" transform="translate(-140.557 -349.37)" fill="#2647a3" fill-rule="evenodd"/>
            <path id="Path_365" data-name="Path 365" d="M184.41,352.68a14.674,14.674,0,0,1-3.72.3h-7.78c-1.82,0-3.08-.14-2.8-.3l1.26-.75a14.838,14.838,0,0,1,3.7-.28h7.57c1.77,0,3.04.12,2.82.28Z" transform="translate(-132.326 -349.37)" fill="#2647a3" fill-rule="evenodd"/>
            <path id="Path_366" data-name="Path 366" d="M167.21,352.68a16.2,16.2,0,0,1-3.84.3h-7.46c-1.82,0-3.03-.14-2.69-.3l1.53-.75a16.317,16.317,0,0,1,3.8-.28h7.25c1.77,0,2.99.12,2.71.28Z" transform="translate(-124.169 -349.37)" fill="#2647a3" fill-rule="evenodd"/>
            <path id="Path_367" data-name="Path 367" d="M150.33,352.68a17.793,17.793,0,0,1-3.94.3h-8.43c-1.82,0-2.98-.14-2.58-.3l1.81-.75a17.924,17.924,0,0,1,3.91-.28h8.2c1.77,0,2.95.12,2.61.28Z" transform="translate(-109.351 -349.37)" fill="#2647a3" fill-rule="evenodd"/>
            <path id="Path_368" data-name="Path 368" d="M132.48,352.68a19.567,19.567,0,0,1-4.06.3H114.75c-1.82,0-2.91-.14-2.43-.3l2.18-.75a20.049,20.049,0,0,1,4.05-.28h13.28c1.77,0,2.9.12,2.5.28Z" transform="translate(-97.161 -349.37)" fill="#2647a3" fill-rule="evenodd"/>
            <path id="Path_369" data-name="Path 369" d="M132.01,351.12a19.483,19.483,0,0,1-3.92.28h-8.82c-1.76,0-2.83-.13-2.39-.28l1.82-.63a20.188,20.188,0,0,1,3.9-.27h8.6c1.72,0,2.8.12,2.42.27Z" transform="translate(-97.161 -349.37)" fill="#2647a3" fill-rule="evenodd"/>
            <path id="Path_370" data-name="Path 370" d="M149.26,351.12a17.774,17.774,0,0,1-3.81.28H137.3c-1.76,0-2.88-.13-2.5-.28l1.58-.63a18.362,18.362,0,0,1,3.79-.27h7.94c1.71,0,2.85.12,2.52.27Z" transform="translate(-109.128 -349.37)" fill="#2647a3" fill-rule="evenodd"/>
            <path id="Path_371" data-name="Path 371" d="M165.59,351.12a16.267,16.267,0,0,1-3.71.28h-7.21c-1.76,0-2.93-.13-2.6-.28l1.34-.63a16.82,16.82,0,0,1,3.69-.27h7.03c1.71,0,2.89.12,2.62.27Z" transform="translate(-123.559 -349.37)" fill="#2647a3" fill-rule="evenodd"/>
            <path id="Path_372" data-name="Path 372" d="M182.22,351.12a14.772,14.772,0,0,1-3.61.28h-7.53c-1.76,0-2.97-.13-2.7-.28l1.12-.63a15.334,15.334,0,0,1,3.6-.27h7.33c1.71,0,2.94.12,2.72.27Z" transform="translate(-131.424 -349.37)" fill="#2647a3" fill-rule="evenodd"/>
            <path id="Path_373" data-name="Path 373" d="M198.74,351.12a13.36,13.36,0,0,1-3.51.28h-7.41c-1.76,0-3.02-.13-2.8-.28l.89-.63a13.946,13.946,0,0,1,3.5-.27h7.22c1.72,0,2.98.12,2.82.27Z" transform="translate(-139.387 -349.37)" fill="#2647a3" fill-rule="evenodd"/>
            <path id="Path_374" data-name="Path 374" d="M215.99,351.12a11.988,11.988,0,0,1-3.4.28h-8.15c-1.76,0-3.07-.13-2.9-.28l.66-.63a12.689,12.689,0,0,1,3.4-.27h7.94c1.71,0,3.02.12,2.91.27Z" transform="translate(-147.413 -349.37)" fill="#2647a3" fill-rule="evenodd"/>
            <path id="Path_375" data-name="Path 375" d="M232.31,351.12a10.827,10.827,0,0,1-3.31.28h-7.21c-1.76,0-3.11-.13-3.01-.28l.43-.63a11.39,11.39,0,0,1,3.3-.27h7.03c1.71,0,3.07.12,3.01.27Z" transform="translate(-155.488 -349.37)" fill="#2647a3" fill-rule="evenodd"/>
            <path id="Path_376" data-name="Path 376" d="M248.95,351.12a9.6,9.6,0,0,1-3.21.28h-7.52a8.586,8.586,0,0,1-3.11-.28l.2-.63a10.257,10.257,0,0,1,3.21-.27h7.33a9.106,9.106,0,0,1,3.11.27Z" transform="translate(-163.338 -349.37)" fill="#2647a3" fill-rule="evenodd"/>
            <path id="Path_377" data-name="Path 377" d="M264.37,351.12a8.586,8.586,0,0,1-3.11.28h-6.31a9.647,9.647,0,0,1-3.21-.28l-.02-.63a9.106,9.106,0,0,1,3.11-.27h6.15a10.119,10.119,0,0,1,3.2.27Z" transform="translate(-171.004 -349.37)" fill="#2647a3" fill-rule="evenodd"/>
            <path id="Path_378" data-name="Path 378" d="M281.63,351.12c.11.15-1.25.28-3.01.28h-8.15a10.827,10.827,0,0,1-3.31-.28l-.24-.63a8.2,8.2,0,0,1,3.02-.27h7.94a11.39,11.39,0,0,1,3.3.27Z" transform="translate(-178.841 -349.37)" fill="#2647a3" fill-rule="evenodd"/>
            <path id="Path_379" data-name="Path 379" d="M297.95,351.12c.16.15-1.15.28-2.91.28h-7.21a12.084,12.084,0,0,1-3.41-.28l-.47-.63c-.11-.15,1.2-.27,2.91-.27h7.03a12.575,12.575,0,0,1,3.4.27Z" transform="translate(-186.818 -349.37)" fill="#2647a3" fill-rule="evenodd"/>
            <path id="Path_380" data-name="Path 380" d="M314.58,351.12c.21.15-1.04.28-2.8.28h-7.52a13.36,13.36,0,0,1-3.51-.28l-.7-.63c-.16-.15,1.1-.27,2.82-.27h7.33a14.007,14.007,0,0,1,3.5.27Z" transform="translate(-194.725 -349.37)" fill="#2647a3" fill-rule="evenodd"/>
            <path id="Path_381" data-name="Path 381" d="M331.51,351.12c.27.15-.94.28-2.7.28h-7.82a14.709,14.709,0,0,1-3.61-.28l-.92-.63c-.22-.15,1.01-.27,2.72-.27h7.62a15.465,15.465,0,0,1,3.6.27Z" transform="translate(-202.81 -349.37)" fill="#2647a3" fill-rule="evenodd"/>
            <path id="Path_382" data-name="Path 382" d="M365.08,351.12c.38.15-.73.28-2.49.28H338.02a16.312,16.312,0,0,1-3.72-.28l-1.16-.63c-.27-.15.91-.27,2.62-.27H359.7a18.362,18.362,0,0,1,3.79.27Z" transform="translate(-224.205 -349.37)" fill="#2647a3" fill-rule="evenodd"/>
            <path id="Path_383" data-name="Path 383" d="M377.4,350.23a20.188,20.188,0,0,1,3.9.27l1.83.63c.44.15-.63.28-2.38.28h-8.94a19.484,19.484,0,0,1-3.92-.28l-1.62-.63c-.38-.15.71-.27,2.43-.27Z" transform="translate(-237.161 -349.37)" fill="#2647a3" fill-rule="evenodd"/>
            <path id="Path_384" data-name="Path 384" d="M348.22,349.63c-.32-.15.79-.26,2.48-.26h6.89a17.857,17.857,0,0,1,3.71.26l.24.1c.36.14-.73.26-2.44.26h-6.98a17.574,17.574,0,0,1-3.68-.26Z" transform="translate(-224.173 -349.37)" fill="#2647a3" fill-rule="evenodd"/>
            <path id="Path_385" data-name="Path 385" d="M331.53,349.63c-.27-.15.9-.26,2.58-.26h7.79a16.451,16.451,0,0,1,3.62.26l.21.1c.31.14-.83.26-2.53.26h-7.9a16.212,16.212,0,0,1-3.59-.26Z" transform="translate(-209.745 -349.37)" fill="#2647a3" fill-rule="evenodd"/>
            <path id="Path_386" data-name="Path 386" d="M315.16,349.63c-.22-.15.99-.26,2.67-.26h7.47a14.935,14.935,0,0,1,3.52.26l.17.1c.25.14-.93.26-2.63.26h-7.58a14.67,14.67,0,0,1-3.49-.26Z" transform="translate(-201.743 -349.37)" fill="#2647a3" fill-rule="evenodd"/>
            <path id="Path_387" data-name="Path 387" d="M299.08,349.63c-.16-.15,1.08-.26,2.77-.26h7.19a13.5,13.5,0,0,1,3.42.26l.14.1c.2.14-1.02.26-2.73.26h-7.29a13.277,13.277,0,0,1-3.39-.26Z" transform="translate(-193.923 -349.37)" fill="#2647a3" fill-rule="evenodd"/>
            <path id="Path_388" data-name="Path 388" d="M283.29,349.63c-.11-.15,1.18-.26,2.86-.26h6.89a12.306,12.306,0,0,1,3.33.26l.1.1c.15.14-1.12.26-2.83.26h-6.99a11.9,11.9,0,0,1-3.29-.26Z" transform="translate(-186.25 -349.37)" fill="#2647a3" fill-rule="evenodd"/>
            <path id="Path_389" data-name="Path 389" d="M266.6,349.63c-.06-.15,1.28-.26,2.96-.26h7.79a11.17,11.17,0,0,1,3.24.26l.07.1c.1.14-1.21.26-2.92.26h-7.9a10.762,10.762,0,0,1-3.2-.26Z" transform="translate(-178.505 -349.37)" fill="#2647a3" fill-rule="evenodd"/>
            <path id="Path_390" data-name="Path 390" d="M251.68,349.63a8.95,8.95,0,0,1,3.05-.26h6.03a10.007,10.007,0,0,1,3.14.26l.03.1a8.712,8.712,0,0,1-3.02.26H254.8a9.682,9.682,0,0,1-3.11-.26Z" transform="translate(-170.884 -349.37)" fill="#2647a3" fill-rule="evenodd"/>
            <path id="Path_391" data-name="Path 391" d="M235.6,349.63a10.008,10.008,0,0,1,3.14-.26h7.19a8.949,8.949,0,0,1,3.05.26v.1a9.682,9.682,0,0,1-3.11.26h-7.29a8.629,8.629,0,0,1-3.01-.26Z" transform="translate(-163.459 -349.37)" fill="#2647a3" fill-rule="evenodd"/>
            <path id="Path_392" data-name="Path 392" d="M219.81,349.63a11.078,11.078,0,0,1,3.23-.26h6.89a8.042,8.042,0,0,1,2.96.26l-.04.1a10.869,10.869,0,0,1-3.2.26h-6.99c-1.7,0-3.02-.12-2.92-.26Z" transform="translate(-155.823 -349.37)" fill="#2647a3" fill-rule="evenodd"/>
            <path id="Path_393" data-name="Path 393" d="M203.13,349.63a12.307,12.307,0,0,1,3.33-.26h7.79c1.68,0,2.97.11,2.86.26l-.07.1a12.018,12.018,0,0,1-3.29.26h-7.9c-1.71,0-2.97-.12-2.82-.26Z" transform="translate(-147.987 -349.37)" fill="#2647a3" fill-rule="evenodd"/>
            <path id="Path_394" data-name="Path 394" d="M187.15,349.63a13.609,13.609,0,0,1,3.43-.26h7.08c1.68,0,2.93.11,2.77.26l-.11.1a13.382,13.382,0,0,1-3.4.26h-7.18c-1.71,0-2.93-.12-2.73-.26Z" transform="translate(-140.195 -349.37)" fill="#2647a3" fill-rule="evenodd"/>
            <path id="Path_395" data-name="Path 395" d="M171.06,349.63a14.937,14.937,0,0,1,3.52-.26h7.19c1.68,0,2.88.11,2.67.26l-.14.1a14.67,14.67,0,0,1-3.49.26h-7.29c-1.7,0-2.89-.12-2.63-.26Z" transform="translate(-132.484 -349.37)" fill="#2647a3" fill-rule="evenodd"/>
            <path id="Path_396" data-name="Path 396" d="M155.28,349.63a16.338,16.338,0,0,1,3.61-.26h6.89c1.68,0,2.84.11,2.58.26l-.18.1a16.143,16.143,0,0,1-3.59.26H157.6c-1.7,0-2.84-.12-2.54-.26Z" transform="translate(-124.869 -349.37)" fill="#2647a3" fill-rule="evenodd"/>
            <path id="Path_397" data-name="Path 397" d="M138.59,349.63a17.86,17.86,0,0,1,3.71-.26h7.79c1.68,0,2.8.11,2.48.26l-.21.1a17.648,17.648,0,0,1-3.68.26h-7.9c-1.71,0-2.8-.12-2.44-.26Z" transform="translate(-110.163 -349.37)" fill="#2647a3" fill-rule="evenodd"/>
            <path id="Path_398" data-name="Path 398" d="M97.31,357.81c-.58.2.58.37,2.6.37h13.57a20.857,20.857,0,0,0,4.6-.37l2.12-.84c.49-.19-.71-.35-2.67-.35H104.36a23.717,23.717,0,0,0-4.6.35Z" transform="translate(-97.161 -349.37)" fill="#2647a3" fill-rule="evenodd"/>
            <path id="Path_399" data-name="Path 399" d="M121.25,349.63a19.586,19.586,0,0,1,3.82-.26h8.43c1.68,0,2.76.11,2.38.26l-.25.1a19.282,19.282,0,0,1-3.78.26H123.3c-1.7,0-2.75-.12-2.34-.26Z" transform="translate(-97.161 -349.37)" fill="#2647a3" fill-rule="evenodd"/>
            <path id="Path_400" data-name="Path 400" d="M378.75,349.63a19.662,19.662,0,0,0-3.82-.26h-8.54c-1.68,0-2.76.11-2.38.26l.25.1a19.282,19.282,0,0,0,3.78.26h8.66c1.71,0,2.75-.12,2.34-.26Z" transform="translate(-237.161 -349.37)" fill="#2647a3" fill-rule="evenodd"/>
            <path id="Path_401" data-name="Path 401" d="M402.69,357.81c.59.2-.58.37-2.6.37H389.83a21.335,21.335,0,0,1-4.63-.37l-2.18-.84c-.5-.19.69-.35,2.65-.35h9.96a23.718,23.718,0,0,1,4.6.35Z" transform="translate(-237.161 -349.37)" fill="#2647a3" fill-rule="evenodd"/>
            <path id="Path_402" data-name="Path 402" d="M255.576,366.07c.14.21-.515.37-1.466.37H175.894c-.945,0-1.6-.16-1.461-.37l4.7-7.01a3.352,3.352,0,0,1,1.686-.29h68.362a3.265,3.265,0,0,1,1.691.29Z" transform="translate(-132.162 -349.37)" fill="#2647a3" fill-rule="evenodd"/>
          </g>
        </g>
        <g id="Group_404" data-name="Group 404" transform="translate(107.331 125.341)">
          <path id="Path_403" data-name="Path 403" d="M273.55,250.92a17.746,17.746,0,0,0-3.37.33,24.141,24.141,0,0,0-45.8,8.49,12.781,12.781,0,0,0-2.24-.2,13.2,13.2,0,0,0,0,26.4h51.42a17.51,17.51,0,1,0-.01-35.02Z" transform="translate(-155.02 -210.68)" fill="#fff" stroke="#2647a3" stroke-linecap="round" stroke-linejoin="round" stroke-width="1"/>
          <path id="Path_404" data-name="Path 404" d="M257.94,265.52v8.15H242.06v-8.15h-3.48v11.33h22.84V265.52Z" transform="translate(-155.02 -210.68)" fill="#badbf7" stroke="#2647a3" stroke-linecap="round" stroke-linejoin="round" stroke-width="1"/>
          <path id="Path_405" data-name="Path 405" d="M256.78,261.35,250,254.58l-6.78,6.77,1.84,1.84,3.58-3.58v8.33h2.72v-8.33l3.58,3.58Z" transform="translate(-155.02 -210.68)" fill="#badbf7" stroke="#2647a3" stroke-linecap="round" stroke-linejoin="round" stroke-width="1"/>
          <rect id="Rectangle_1424" data-name="Rectangle 1424" width="137.24" height="7" transform="translate(26.36 86.01)" fill="#fff" stroke="#2647a3" stroke-linecap="round" stroke-linejoin="round" stroke-width="1"/>
          <rect id="Rectangle_1425" data-name="Rectangle 1425" width="67.61" height="7" transform="translate(26.36 86.01)" fill="#5190f5" stroke="#2647a3" stroke-linecap="round" stroke-linejoin="round" stroke-width="1"/>
          <g id="Group_403" data-name="Group 403">
            <g id="Group_402" data-name="Group 402">
              <path id="Path_406" data-name="Path 406" d="M344.98,318.6v2.5h-2.5" transform="translate(-155.02 -210.68)" fill="none" stroke="#2647a3" stroke-linecap="round" stroke-linejoin="round" stroke-width="1"/>
              <line id="Line_2" data-name="Line 2" x1="177.46" transform="translate(5 110.42)" fill="none" stroke="#2647a3" stroke-linecap="round" stroke-linejoin="round" stroke-width="1" stroke-dasharray="4.999 4.999"/>
              <path id="Path_407" data-name="Path 407" d="M157.52,321.1h-2.5v-2.5" transform="translate(-155.02 -210.68)" fill="none" stroke="#2647a3" stroke-linecap="round" stroke-linejoin="round" stroke-width="1"/>
              <line id="Line_3" data-name="Line 3" y1="97.89" transform="translate(0 5.01)" fill="none" stroke="#2647a3" stroke-linecap="round" stroke-linejoin="round" stroke-width="1" stroke-dasharray="5.02 5.02"/>
              <path id="Path_408" data-name="Path 408" d="M155.02,213.18v-2.5h2.5" transform="translate(-155.02 -210.68)" fill="none" stroke="#2647a3" stroke-linecap="round" stroke-linejoin="round" stroke-width="1"/>
              <line id="Line_4" data-name="Line 4" x2="177.46" transform="translate(7.5)" fill="none" stroke="#2647a3" stroke-linecap="round" stroke-linejoin="round" stroke-width="1" stroke-dasharray="4.999 4.999"/>
              <path id="Path_409" data-name="Path 409" d="M342.48,210.68h2.5v2.5" transform="translate(-155.02 -210.68)" fill="none" stroke="#2647a3" stroke-linecap="round" stroke-linejoin="round" stroke-width="1"/>
              <line id="Line_5" data-name="Line 5" y2="97.89" transform="translate(189.96 7.52)" fill="none" stroke="#2647a3" stroke-linecap="round" stroke-linejoin="round" stroke-width="1" stroke-dasharray="5.02 5.02"/>
            </g>
          </g>
          <text id="drop_here_to_upload" data-name="drop here to upload" transform="translate(69.258 12.708)" fill="#2647a3" font-size="6.15" font-family="SegoeUI, Segoe UI"><tspan x="0" y="0">drop here to upload</tspan></text>
        </g>
        <g id="Group_406" data-name="Group 406" transform="translate(293.527 168.21)">
          <path id="Path_410" data-name="Path 410" d="M413.08,307.6a3,3,0,0,1-3,3H374.52a3,3,0,0,1-3-3V253.08a3,3,0,0,1,3-3h35.56a3,3,0,0,1,3,3Z" transform="translate(-366.19 -250.08)" fill="#d4dee6" stroke="#2647a3" stroke-linecap="round" stroke-linejoin="round" stroke-width="1"/>
          <path id="Path_411" data-name="Path 411" d="M407.75,312.1a3,3,0,0,1-3,3H369.19a3,3,0,0,1-3-3V257.58a3,3,0,0,1,3-3h25.04l13.52,13.52Z" transform="translate(-366.19 -250.08)" fill="#fff" stroke="#2647a3" stroke-linecap="round" stroke-linejoin="round" stroke-width="1"/>
          <path id="Path_412" data-name="Path 412" d="M394.23,263.77a4.332,4.332,0,0,0,4.33,4.33h9.2l-13.52-13.52v9.19Z" transform="translate(-366.19 -250.08)" fill="#badbf7" stroke="#2647a3" stroke-linecap="round" stroke-linejoin="round" stroke-width="1"/>
          <g id="Group_405" data-name="Group 405" transform="translate(4.37 24.27)">
            <line id="Line_6" data-name="Line 6" x2="23.32" fill="none" stroke="#2647a3" stroke-linecap="round" stroke-linejoin="round" stroke-width="1"/>
            <line id="Line_7" data-name="Line 7" x2="32.82" transform="translate(0 4.08)" fill="none" stroke="#2647a3" stroke-linecap="round" stroke-linejoin="round" stroke-width="1"/>
            <line id="Line_8" data-name="Line 8" x2="32.82" transform="translate(0 8.17)" fill="none" stroke="#2647a3" stroke-linecap="round" stroke-linejoin="round" stroke-width="1"/>
            <line id="Line_9" data-name="Line 9" x2="32.82" transform="translate(0 12.25)" fill="none" stroke="#2647a3" stroke-linecap="round" stroke-linejoin="round" stroke-width="1"/>
            <line id="Line_10" data-name="Line 10" x2="32.82" transform="translate(0 16.33)" fill="none" stroke="#2647a3" stroke-linecap="round" stroke-linejoin="round" stroke-width="1"/>
            <line id="Line_11" data-name="Line 11" x2="32.82" transform="translate(0 20.41)" fill="none" stroke="#2647a3" stroke-linecap="round" stroke-linejoin="round" stroke-width="1"/>
            <line id="Line_12" data-name="Line 12" x2="32.82" transform="translate(0 24.5)" fill="none" stroke="#2647a3" stroke-linecap="round" stroke-linejoin="round" stroke-width="1"/>
            <line id="Line_13" data-name="Line 13" x2="32.82" transform="translate(0 28.58)" fill="none" stroke="#2647a3" stroke-linecap="round" stroke-linejoin="round" stroke-width="1"/>
            <line id="Line_14" data-name="Line 14" x2="32.82" transform="translate(0 32.66)" fill="none" stroke="#2647a3" stroke-linecap="round" stroke-linejoin="round" stroke-width="1"/>
          </g>
        </g>
        <g id="Group_409" data-name="Group 409" transform="translate(70.604 129.126)">
          <g id="Group_407" data-name="Group 407" transform="translate(0 2.289)">
            <path id="Path_413" data-name="Path 413" d="M131.64,268.45a3.449,3.449,0,0,1-2.42,4.23l-34.91,9.46a3.449,3.449,0,0,1-4.23-2.42L78.42,236.7a3.434,3.434,0,0,1,2.42-4.22l34.91-9.46a3.449,3.449,0,0,1,4.23,2.42Z" transform="translate(-78.299 -222.899)" fill="#e8eff5" stroke="#2647a3" stroke-linecap="round" stroke-linejoin="round" stroke-width="1"/>
            <rect id="Rectangle_1426" data-name="Rectangle 1426" width="36.17" height="36.17" transform="translate(3.444 12.905) rotate(-15.159)" fill="#98d3fd" stroke="#2647a3" stroke-linecap="round" stroke-linejoin="round" stroke-width="1"/>
            <path id="Path_414" data-name="Path 414" d="M118.44,238.49a8.755,8.755,0,1,1-10.74-6.16A8.752,8.752,0,0,1,118.44,238.49Z" transform="translate(-78.299 -222.899)" fill="#ffd373" stroke="#2647a3" stroke-linecap="round" stroke-linejoin="round" stroke-width="1"/>
            <path id="Path_415" data-name="Path 415" d="M107.31,266.35l18.81-5.1-2.89-10.67-9.3-9.24Z" transform="translate(-78.299 -222.899)" fill="#64b05b" stroke="#2647a3" stroke-linecap="round" stroke-linejoin="round" stroke-width="1"/>
            <path id="Path_416" data-name="Path 416" d="M94.84,240.56l-5.83,22.02,2.2,8.13,26.68-7.23Z" transform="translate(-78.299 -222.899)" fill="#81d678" stroke="#2647a3" stroke-linecap="round" stroke-linejoin="round" stroke-width="1"/>
          </g>
          <g id="Group_408" data-name="Group 408" transform="translate(15.031)">
            <path id="Path_417" data-name="Path 417" d="M136.38,268.62a3.448,3.448,0,0,1-3.44,3.45H96.77a3.442,3.442,0,0,1-3.44-3.45V224.05a3.44,3.44,0,0,1,3.44-3.44h36.17a3.44,3.44,0,0,1,3.44,3.44Z" transform="translate(-93.33 -220.61)" fill="#fff" stroke="#2647a3" stroke-linecap="round" stroke-linejoin="round" stroke-width="1"/>
            <rect id="Rectangle_1427" data-name="Rectangle 1427" width="36.17" height="36.17" transform="translate(3.44 3.44)" fill="#98d3fd" stroke="#2647a3" stroke-linecap="round" stroke-linejoin="round" stroke-width="1"/>
            <path id="Path_418" data-name="Path 418" d="M131.48,236.25a8.76,8.76,0,1,1-8.76-8.76A8.757,8.757,0,0,1,131.48,236.25Z" transform="translate(-93.33 -220.61)" fill="#ffd373" stroke="#2647a3" stroke-linecap="round" stroke-linejoin="round" stroke-width="1"/>
            <path id="Path_419" data-name="Path 419" d="M113.45,260.22h19.49V249.17l-6.56-11.35Z" transform="translate(-93.33 -220.61)" fill="#64b05b" stroke="#2647a3" stroke-linecap="round" stroke-linejoin="round" stroke-width="1"/>
            <path id="Path_420" data-name="Path 420" d="M108.16,232.08,96.77,251.8v8.42h27.64Z" transform="translate(-93.33 -220.61)" fill="#81d678" stroke="#2647a3" stroke-linecap="round" stroke-linejoin="round" stroke-width="1"/>
          </g>
        </g>
        <path id="Path_421" data-name="Path 421" d="M185.46,250l-.9-8.73a2.8,2.8,0,0,0-5.57.57l.19,1.89c-15.78-10.84-35.37-6.6-36.28-6.4a2.8,2.8,0,1,0,1.24,5.46c.2-.04,17.79-3.86,31.61,5.38l-2.1.22a2.8,2.8,0,0,0,.28,5.58,1.464,1.464,0,0,0,.29-.02l8.73-.9A2.781,2.781,0,0,0,185.46,250Z" transform="translate(-39.247 -93.188)" fill="#fff" stroke="#2647a3" stroke-linecap="round" stroke-linejoin="round" stroke-width="1"/>
        <path id="Path_422" data-name="Path 422" d="M337.32,273.87l.9-8.73a2.8,2.8,0,0,1,5.57.57l-.19,1.89c15.78-10.84,35.37-6.6,36.28-6.4a2.8,2.8,0,1,1-1.24,5.46c-.2-.05-17.79-3.86-31.61,5.38l2.09.22a2.8,2.8,0,0,1-.28,5.58,1.465,1.465,0,0,1-.29-.02l-8.73-.9A2.761,2.761,0,0,1,337.32,273.87Z" transform="translate(-58.344 -87.306)" fill="#2e7efb" stroke="#2647a3" stroke-linecap="round" stroke-linejoin="round" stroke-width="1"/>
        <g id="Group_410" data-name="Group 410" transform="translate(87.335 225.641)">
          <path id="Path_423" data-name="Path 423" d="M131.15,306.17a5.192,5.192,0,0,1,4.86-3.82h35.94a3.037,3.037,0,0,1,3.14,3.82l-5.08,22.53a5.192,5.192,0,0,1-4.86,3.82H129.21a3.037,3.037,0,0,1-3.14-3.82Z" transform="translate(-125.2 -300.18)" fill="#ffab73" stroke="#2647a3" stroke-linecap="round" stroke-linejoin="round" stroke-width="1"/>
          <path id="Path_424" data-name="Path 424" d="M151.75,307.94a3.956,3.956,0,0,1-4-3.88,3.956,3.956,0,0,0-4-3.88H129.2a4.012,4.012,0,0,0-4,4v24.33a4.012,4.012,0,0,0,4,4h35.94a4.012,4.012,0,0,0,4-4V311.93a4.012,4.012,0,0,0-4-4H151.75Z" transform="translate(-125.2 -300.18)" fill="#ffd373" stroke="#2647a3" stroke-linecap="round" stroke-linejoin="round" stroke-width="1"/>
        </g>
        <g id="Group_411" data-name="Group 411" transform="translate(273.536 72.777)">
          <path id="Path_425" data-name="Path 425" d="M370.88,211.98a6.683,6.683,0,0,1-6.69,6.69H337.6a6.7,6.7,0,0,1-6.69-6.69V185.39a6.69,6.69,0,0,1,6.69-6.69h26.59a6.69,6.69,0,0,1,6.69,6.69Z" transform="translate(-330.91 -178.7)" fill="#ff879f" stroke="#2647a3" stroke-linecap="round" stroke-linejoin="round" stroke-width="1"/>
          <path id="Path_426" data-name="Path 426" d="M343.45,191.6c0-2.75,1.95-3.88,4.33-2.5l12.28,7.09c2.38,1.38,2.38,3.63,0,5l-12.28,7.09c-2.38,1.38-4.33.25-4.33-2.5Z" transform="translate(-330.91 -178.7)" fill="#fff" stroke="#2647a3" stroke-linecap="round" stroke-linejoin="round" stroke-width="1"/>
        </g>
        <g id="Group_412" data-name="Group 412" transform="translate(196.004 18.25)">
          <path id="Path_427" data-name="Path 427" d="M304.42,173.43a.469.469,0,0,1-.47-.47v-2.04a.469.469,0,0,1,.47-.47h1.02v-1.69h-3.08V145.72h3.08v-1.69h-1.02a.469.469,0,0,1-.47-.47v-2.04a.469.469,0,0,1,.47-.47h1.02v-1.31H246.3v1.31h1.02a.469.469,0,0,1,.47.47v2.04a.469.469,0,0,1-.47.47H246.3v1.69h3.08v23.04H246.3v1.69h1.02a.469.469,0,0,1,.47.47v2.04a.469.469,0,0,1-.47.47H246.3v1.31h59.14v-1.31h-1.02Zm-49.24-.47a.469.469,0,0,1-.47.47h-2.04a.469.469,0,0,1-.47-.47v-2.04a.469.469,0,0,1,.47-.47h2.04a.469.469,0,0,1,.47.47Zm0-29.4a.469.469,0,0,1-.47.47h-2.04a.469.469,0,0,1-.47-.47v-2.04a.469.469,0,0,1,.47-.47h2.04a.469.469,0,0,1,.47.47Zm7.4,29.4a.469.469,0,0,1-.47.47h-2.04a.469.469,0,0,1-.47-.47v-2.04a.469.469,0,0,1,.47-.47h2.04a.469.469,0,0,1,.47.47Zm0-29.4a.469.469,0,0,1-.47.47h-2.04a.469.469,0,0,1-.47-.47v-2.04a.469.469,0,0,1,.47-.47h2.04a.469.469,0,0,1,.47.47Zm7.39,29.4a.469.469,0,0,1-.47.47h-2.05a.469.469,0,0,1-.47-.47v-2.04a.469.469,0,0,1,.47-.47h2.05a.469.469,0,0,1,.47.47Zm0-29.4a.469.469,0,0,1-.47.47h-2.05a.469.469,0,0,1-.47-.47v-2.04a.469.469,0,0,1,.47-.47h2.05a.469.469,0,0,1,.47.47Zm7.39,29.4a.469.469,0,0,1-.47.47h-2.04a.469.469,0,0,1-.47-.47v-2.04a.469.469,0,0,1,.47-.47h2.04a.469.469,0,0,1,.47.47Zm0-29.4a.469.469,0,0,1-.47.47h-2.04a.469.469,0,0,1-.47-.47v-2.04a.469.469,0,0,1,.47-.47h2.04a.469.469,0,0,1,.47.47Zm7.39,29.4a.469.469,0,0,1-.47.47h-2.04a.469.469,0,0,1-.47-.47v-2.04a.469.469,0,0,1,.47-.47h2.04a.469.469,0,0,1,.47.47Zm0-29.4a.469.469,0,0,1-.47.47h-2.04a.469.469,0,0,1-.47-.47v-2.04a.469.469,0,0,1,.47-.47h2.04a.469.469,0,0,1,.47.47Zm7.4,29.4a.469.469,0,0,1-.47.47h-2.04a.469.469,0,0,1-.47-.47v-2.04a.469.469,0,0,1,.47-.47h2.04a.469.469,0,0,1,.47.47Zm0-29.4a.469.469,0,0,1-.47.47h-2.04a.469.469,0,0,1-.47-.47v-2.04a.469.469,0,0,1,.47-.47h2.04a.469.469,0,0,1,.47.47Zm7.39,29.4a.469.469,0,0,1-.47.47h-2.04a.469.469,0,0,1-.47-.47v-2.04a.469.469,0,0,1,.47-.47h2.04a.469.469,0,0,1,.47.47Zm0-29.4a.469.469,0,0,1-.47.47h-2.04a.469.469,0,0,1-.47-.47v-2.04a.469.469,0,0,1,.47-.47h2.04a.469.469,0,0,1,.47.47Z" transform="translate(-246.3 -139.74)" fill="#2e7efb" stroke="#2647a3" stroke-linecap="round" stroke-linejoin="round" stroke-width="1"/>
          <rect id="Rectangle_1428" data-name="Rectangle 1428" width="42.63" height="23.04" transform="translate(8.26 5.98)" fill="#fff" stroke="#2647a3" stroke-linecap="round" stroke-linejoin="round" stroke-width="1"/>
          <path id="Path_428" data-name="Path 428" d="M269.92,152.1c0-2,1.41-2.81,3.14-1.81l8.91,5.14c1.73,1,1.73,2.63,0,3.63l-8.91,5.14c-1.73,1-3.14.18-3.14-1.81Z" transform="translate(-246.3 -139.74)" fill="#ff879f" stroke="#2647a3" stroke-linecap="round" stroke-linejoin="round" stroke-width="1"/>
        </g>
        <g id="Group_414" data-name="Group 414" transform="translate(105.461 30)">
          <path id="Path_429" data-name="Path 429" d="M217.94,197.16a3,3,0,0,1-3,3H149.27a3,3,0,0,1-3-3V154.49a3,3,0,0,1,3-3h65.67a3,3,0,0,1,3,3Z" transform="translate(-146.27 -151.49)" fill="#d4dee6" stroke="#2647a3" stroke-linecap="round" stroke-linejoin="round" stroke-width="1"/>
          <path id="Path_430" data-name="Path 430" d="M223.69,202.91a3,3,0,0,1-3,3H155.02a3,3,0,0,1-3-3V160.24a3,3,0,0,1,3-3h65.67a3,3,0,0,1,3,3Z" transform="translate(-146.27 -151.49)" fill="#fff" stroke="#2647a3" stroke-linecap="round" stroke-linejoin="round" stroke-width="1"/>
          <g id="Group_413" data-name="Group 413" transform="translate(12.56 12.02)">
            <path id="Path_431" data-name="Path 431" d="M192.08,170.51a15.905,15.905,0,0,0-13.18-7v15.91Z" transform="translate(-158.83 -163.51)" fill="#ff879f" stroke="#2647a3" stroke-linecap="round" stroke-linejoin="round" stroke-width="1"/>
            <path id="Path_432" data-name="Path 432" d="M194.03,190.79a15.866,15.866,0,0,0-.36-17.24l-13.18,8.92S187.73,186.92,194.03,190.79Z" transform="translate(-158.83 -163.51)" fill="#badbf7" stroke="#2647a3" stroke-linecap="round" stroke-linejoin="round" stroke-width="1"/>
            <path id="Path_433" data-name="Path 433" d="M177.47,183.72s-5.72,6.29-10.69,11.76a15.871,15.871,0,0,0,24.24-3.44C184.72,188.18,177.48,183.72,177.47,183.72Z" transform="translate(-158.83 -163.51)" fill="#81d678" stroke="#2647a3" stroke-linecap="round" stroke-linejoin="round" stroke-width="1"/>
            <path id="Path_434" data-name="Path 434" d="M174.74,164.56a15.894,15.894,0,0,0-10.69,27.67c4.97-5.47,10.69-11.76,10.69-11.76Z" transform="translate(-158.83 -163.51)" fill="#ffd373" stroke="#2647a3" stroke-linecap="round" stroke-linejoin="round" stroke-width="1"/>
          </g>
          <line id="Line_15" data-name="Line 15" x2="12.16" transform="translate(58.55 20.83)" fill="none" stroke="#2647a3" stroke-linecap="round" stroke-linejoin="round" stroke-width="1"/>
          <line id="Line_16" data-name="Line 16" x2="12.16" transform="translate(58.55 24.83)" fill="none" stroke="#2647a3" stroke-linecap="round" stroke-linejoin="round" stroke-width="1"/>
          <line id="Line_17" data-name="Line 17" x2="12.16" transform="translate(58.55 28.83)" fill="none" stroke="#2647a3" stroke-linecap="round" stroke-linejoin="round" stroke-width="1"/>
          <line id="Line_18" data-name="Line 18" x2="12.16" transform="translate(58.55 32.83)" fill="none" stroke="#2647a3" stroke-linecap="round" stroke-linejoin="round" stroke-width="1"/>
          <line id="Line_19" data-name="Line 19" x2="12.16" transform="translate(58.55 36.83)" fill="none" stroke="#2647a3" stroke-linecap="round" stroke-linejoin="round" stroke-width="1"/>
        </g>
        <g id="Group_415" data-name="Group 415" transform="translate(12.86)">
          <path id="Path_435" data-name="Path 435" d="M237.11,177.35h-2.32v-2.31a1.35,1.35,0,0,0-2.7,0v2.31h-2.31a1.35,1.35,0,0,0,0,2.7h2.31v2.31a1.35,1.35,0,0,0,2.7,0v-2.31h2.32a1.35,1.35,0,0,0,0-2.7Z" transform="translate(-59.157 -121.49)" fill="#badbf7"/>
          <path id="Path_436" data-name="Path 436" d="M453.36,329.79h-2.32v-2.31a1.35,1.35,0,0,0-2.7,0v2.31h-2.31a1.35,1.35,0,0,0,0,2.7h2.31v2.31a1.35,1.35,0,1,0,2.7,0v-2.31h2.32a1.35,1.35,0,0,0,0-2.7Z" transform="translate(-79.908 -121.49)" fill="#ffd373"/>
          <path id="Path_437" data-name="Path 437" d="M149,137.44l-1.64-1.64,1.64-1.64a1.351,1.351,0,1,0-1.91-1.91l-1.63,1.64-1.64-1.64a1.351,1.351,0,1,0-1.91,1.91l1.64,1.64-1.64,1.64a1.351,1.351,0,0,0,1.91,1.91l1.64-1.64,1.64,1.64a1.346,1.346,0,0,0,1.91,0A1.374,1.374,0,0,0,149,137.44Z" transform="translate(-50.766 -121.49)" fill="#ff879f"/>
          <path id="Path_438" data-name="Path 438" d="M328.54,163.52a4.55,4.55,0,1,1-4.55-4.55A4.554,4.554,0,0,1,328.54,163.52Z" transform="translate(-67.829 -121.49)" fill="none" stroke="#ff879f" stroke-miterlimit="10" stroke-width="1"/>
          <path id="Path_439" data-name="Path 439" d="M454.25,252.58a4.55,4.55,0,1,1-4.55-4.55A4.554,4.554,0,0,1,454.25,252.58Z" transform="translate(-79.908 -121.49)" fill="none" stroke="#a7d678" stroke-linecap="round" stroke-linejoin="round" stroke-miterlimit="10" stroke-width="1"/>
          <path id="Path_440" data-name="Path 440" d="M319.77,121.49l4.63,2.36-4.36,2.83Z" transform="translate(-67.569 -121.49)" fill="none" stroke="#2e7efb" stroke-linejoin="round" stroke-miterlimit="10" stroke-width="1"/>
          <path id="Path_441" data-name="Path 441" d="M41.19,319.15l4.63,2.36-4.35,2.83Z" transform="translate(-41.19 -121.49)" fill="none" stroke="#2e7efb" stroke-linejoin="round" stroke-miterlimit="10" stroke-width="1"/>
          <path id="Path_442" data-name="Path 442" d="M76.46,169.53c4.13,0,4.13,3.88,8.25,3.88s4.13-3.88,8.26-3.88,4.13,3.88,8.26,3.88,4.13-3.88,8.26-3.88,4.13,3.88,8.26,3.88,4.13-3.88,8.26-3.88" transform="translate(-41.19 -121.49)" fill="none" stroke="#ff879f" stroke-miterlimit="10" stroke-width="1"/>
          <path id="Path_443" data-name="Path 443" d="M404.65,196.75c4.13,0,4.13,3.88,8.26,3.88s4.13-3.88,8.25-3.88,4.13,3.88,8.26,3.88,4.13-3.88,8.26-3.88,4.13,3.88,8.27,3.88,4.13-3.88,8.26-3.88" transform="translate(-79.908 -121.49)" fill="none" stroke="#2e7efb" stroke-linecap="round" stroke-linejoin="round" stroke-miterlimit="10" stroke-width="1"/>
          <path id="Path_444" data-name="Path 444" d="M53.53,274.91c4.13,0,4.13,3.88,8.26,3.88s4.13-3.88,8.26-3.88,4.13,3.88,8.26,3.88,4.13-3.88,8.26-3.88,4.13,3.88,8.27,3.88,4.13-3.88,8.26-3.88" transform="translate(-41.19 -121.49)" fill="none" stroke="#a7d678" stroke-linecap="round" stroke-linejoin="round" stroke-miterlimit="10" stroke-width="1"/>
        </g>
      </g>
    </g>
  </g>
</svg>
